<svg width="281" height="55" viewBox="0 0 281 55" fill="none" xmlns="http://www.w3.org/2000/svg">
<path d="M16.623 8.592C17.519 8.976 18.095 8.72 18.671 8.4C20.655 7.44 22.703 6.416 24.687 5.456C25.839 4.944 27.055 4.752 28.271 4.432C29.295 4.176 30.063 4.624 30.383 5.584C30.511 6.096 30.575 6.608 30.575 7.12C30.639 9.552 29.871 11.728 28.975 14.032C26.863 19.536 23.727 24.528 20.719 29.584C19.631 31.184 18.671 32.784 17.263 34.128C14.255 37.072 11.247 40.016 8.239 42.96C5.871 45.392 3.503 47.952 1.647 50.768C1.263 51.344 0.879 51.984 0.687 52.56C0.495 53.136 0.495 53.776 1.071 54.16C1.583 54.608 2.159 54.544 2.671 54.224C3.183 54.032 3.695 53.84 4.015 53.52C5.679 52.048 7.279 50.64 8.751 49.104C12.335 45.136 15.471 40.784 18.415 36.368C18.927 35.536 19.503 34.768 20.207 34.128C23.023 31.632 25.903 29.2 28.783 26.768C29.423 26.256 30.127 25.68 30.959 25.104C30.767 26 30.767 26.768 30.703 27.472C30.383 30.416 30.319 33.36 30.767 36.304C31.791 41.36 35.055 44.624 39.855 46.608C41.327 47.248 42.991 47.056 44.719 46.224C43.503 45.904 42.351 45.584 41.199 45.2C37.551 43.92 34.799 41.616 33.327 38.224C32.495 36.496 32.367 34.64 32.367 32.72C32.239 29.968 32.367 27.28 32.751 24.592C32.879 23.824 33.071 23.376 33.647 22.864C41.199 17.04 49.071 11.664 57.199 6.736C59.887 5.072 62.831 3.536 66.031 2.576C66.223 2.512 66.479 2.448 66.671 2.192C66.863 1.936 66.991 1.552 66.927 1.36C66.863 1.104 66.415 0.848 66.159 0.848C65.711 0.783997 65.199 0.848 64.879 1.04C63.663 1.424 62.383 1.68 61.359 2.448C58.159 4.176 54.959 5.968 51.759 7.888C43.055 13.328 34.799 19.408 26.927 25.872C25.903 26.768 25.007 27.472 23.983 28.24C23.919 28.24 23.855 28.176 23.663 28.112C24.431 26.96 25.071 25.872 25.647 24.784C27.951 20.752 30.063 16.72 31.471 12.304C32.111 10.32 32.623 8.272 32.303 6.096C31.919 3.472 30.127 2.256 27.503 3.024C24.751 3.664 22.255 4.944 19.887 6.096C18.991 6.608 18.287 7.056 17.583 7.504C17.199 7.76 17.007 8.208 16.623 8.592ZM3.695 51.28C5.871 48.208 8.367 45.328 11.247 42.896C9.135 46.032 6.703 48.912 3.695 51.28ZM53.649 35.984C52.689 36.816 50.385 37.776 51.153 34.832C51.409 33.744 51.729 32.592 52.049 31.504C53.329 28.304 54.993 25.296 56.721 22.224C57.553 21.008 58.513 20.048 59.537 19.088C62.929 16.144 66.129 13.072 68.881 9.488C69.457 8.656 69.905 7.76 70.353 6.8C70.673 6.224 70.673 5.52 70.097 5.008C69.521 4.56 68.881 4.752 68.305 5.008C67.857 5.2 67.409 5.456 67.153 5.776C66.577 6.224 66.001 6.736 65.489 7.248C62.545 10.256 60.113 13.84 57.681 17.296C56.721 18.576 56.017 20.112 54.417 20.816C54.353 20.88 54.225 21.072 54.097 21.328C54.801 22.032 54.353 22.736 53.905 23.504C53.585 23.952 53.265 24.528 53.009 25.104C51.473 28.048 50.001 30.992 49.361 34.32C49.169 34.96 49.105 35.664 49.169 36.304C49.297 37.904 50.321 38.8 51.921 38.352C52.369 38.224 52.817 37.968 53.137 37.776C53.841 37.264 54.673 36.752 55.313 36.112C57.745 33.744 60.433 31.504 62.545 28.688C64.721 25.808 63.761 25.168 61.521 27.472C59.281 29.712 56.337 33.168 53.649 35.984ZM67.217 8.272C71.953 5.008 61.457 16.08 59.409 18.064C59.793 16.208 65.681 9.744 67.217 8.272ZM80.4095 27.344C80.9855 27.088 80.6655 26.576 80.2175 26.448C79.8335 26.384 79.4495 26.704 79.1295 26.832C77.9135 27.408 76.6975 28.176 75.6735 28.432C71.7695 29.584 75.0975 23.44 75.6095 22.352C75.8655 21.904 76.0575 21.52 76.1215 21.072C76.1855 20.688 76.0575 20.368 75.8655 20.112C75.6095 19.984 75.1615 19.984 74.9055 20.048C74.6495 20.112 74.3935 20.432 74.2015 20.688C73.6255 21.264 73.0495 21.904 72.4735 22.48C72.0895 22.928 71.5775 23.056 71.1295 22.992C68.0575 22.736 65.4335 23.76 63.1935 25.68C62.6815 26.128 62.3615 26.512 61.9775 27.024C61.5295 27.664 61.3375 28.368 61.7855 29.136C62.1695 29.84 62.9375 30.096 63.7695 29.968C64.3455 29.904 65.0495 29.84 65.5615 29.456C67.8015 28.304 69.8495 26.896 72.0255 25.552C71.8975 26.384 71.7695 27.088 71.7695 27.792C71.7695 32.208 78.4895 29.136 80.4095 27.344ZM63.5775 28.112C65.0495 25.936 68.2495 24.464 70.8095 24.272C69.0815 25.936 66.0735 27.664 63.5775 28.112ZM94.0205 27.28C95.4285 25.552 92.8685 26.704 92.0365 26.96C90.2445 27.536 87.4285 28.752 88.2605 25.552C88.4525 25.04 88.6445 24.464 88.8365 23.888C89.0925 23.376 89.0285 22.864 88.5165 22.672C88.1965 22.48 87.6205 22.48 87.3645 22.672C86.9165 22.8 86.6605 23.248 86.3405 23.44C84.8685 24.656 83.3965 25.808 81.9245 26.96C81.6685 27.088 81.4125 27.088 80.9005 27.344C81.2205 26.832 81.4125 26.512 81.5405 26.256C82.0525 25.616 82.5645 24.976 82.9485 24.336C83.2685 23.888 83.3325 23.44 82.9485 23.056C82.5645 22.8 82.1165 22.992 81.7325 23.312C80.7725 24.464 79.7485 25.616 79.1725 27.088C79.0445 27.408 78.9805 27.856 78.9805 28.176C78.9805 29.008 79.4285 29.456 80.2605 29.456C80.7085 29.456 81.1565 29.328 81.5405 29.136C82.5645 28.688 83.3965 27.984 84.2925 27.408C84.9325 27.024 85.4445 26.576 86.0845 26.128C86.1485 26.448 86.2125 26.512 86.2125 26.704C86.0205 30.416 91.4605 29.456 94.0205 27.28ZM98.035 37.776C98.355 35.664 98.995 34.256 99.763 32.784C102.771 26.64 106.291 20.816 110.067 14.992C110.515 14.224 111.091 13.328 111.667 12.56C112.243 11.536 112.243 10.896 111.667 10.576C111.219 10.32 110.643 10.576 110.003 11.408C109.747 11.664 109.555 12.048 109.427 12.304C107.251 15.632 105.139 18.896 102.515 21.84C101.811 22.544 101.043 23.056 100.019 23.184C99.315 23.184 98.675 23.376 98.099 23.632C96.243 24.272 94.579 25.36 93.427 26.896C93.171 27.472 92.851 28.112 92.787 28.688C92.723 29.712 93.491 30.416 94.579 30.224C95.091 30.16 95.603 29.904 96.051 29.712C97.459 28.688 98.867 27.6 100.211 26.512C100.531 26.256 100.851 26 101.235 25.68C101.235 26.064 101.107 26.32 100.979 26.64C99.699 29.2 98.419 31.888 97.203 34.448C96.755 35.408 96.563 36.368 96.371 37.392C96.115 38.928 97.395 39.824 98.867 39.312C99.507 39.12 100.211 38.736 100.787 38.352C104.883 35.536 108.339 32.016 111.795 28.496C113.907 26.384 112.691 25.68 110.771 27.408C108.979 29.2 106.675 31.12 104.819 32.784C103.219 34.256 101.491 35.6 99.763 36.88C99.443 37.264 98.867 37.392 98.035 37.776ZM94.899 28.176C95.603 26.832 96.947 25.936 98.419 25.488C97.843 26.512 96.499 27.536 94.899 28.176ZM120.896 28.048C122.368 27.28 121.216 25.168 119.488 27.024C118.144 28.496 111.04 32.208 113.6 26.96C114.432 25.552 115.328 24.272 116.16 22.928C117.504 21.136 115.456 19.984 114.624 21.072C113.536 22.544 112.832 24.592 111.872 26.128C111.424 26.704 111.36 27.536 111.36 28.24C111.168 29.328 111.808 30.416 112.96 30.608C113.6 30.736 114.368 30.672 115.008 30.608C117.12 30.096 119.04 29.072 120.896 28.048ZM119.36 15.952C117.888 15.952 117.184 17.104 117.056 18.128C116.736 19.728 117.184 19.792 118.4 19.088C119.232 18.576 120.128 17.68 120.32 17.04C120.448 16.464 120.064 15.952 119.36 15.952ZM128.115 26.512C128.371 25.936 128.562 25.552 128.755 25.168C128.883 24.4 129.267 23.632 129.267 22.992C129.331 21.584 128.499 20.944 127.091 21.072C126.067 21.136 125.363 21.584 124.659 22.096C122.995 23.44 121.395 24.784 120.306 26.512C117.17 31.504 119.538 33.04 121.843 32.336C123.443 31.824 124.339 30.672 126.131 29.008C126.451 28.624 126.835 28.432 127.283 28.368C128.819 28.048 130.419 27.856 132.019 27.536C132.851 27.472 133.555 27.344 134.387 27.152C134.579 27.152 135.027 26.768 135.027 26.64C135.091 26.32 134.835 25.936 134.579 25.808C134.195 25.68 134.067 25.68 133.619 25.68C132.851 25.808 131.699 25.936 130.995 26.064C130.099 26.256 129.139 26.32 128.115 26.512ZM121.971 26.832C122.227 28.048 123.123 28.432 124.467 28.432C122.803 32.08 119.026 30.352 121.971 26.832ZM127.411 22.608C127.411 23.12 127.539 23.504 127.411 23.632C127.155 24.4 126.771 25.296 126.259 26C125.939 26.704 124.786 26.768 124.275 26.256C123.827 25.936 123.891 25.552 124.083 25.232C124.786 24.016 125.811 23.12 127.411 22.608ZM204.29 46.8C214.21 27.856 220.354 18.448 225.858 8.848C226.69 7.376 227.458 5.904 228.162 4.496C228.418 3.92 228.418 3.216 227.906 2.768C227.33 2.32 226.69 2.576 226.178 2.832C225.666 3.216 225.09 3.536 224.642 3.984C218.05 9.872 208.642 20.048 202.114 25.936C198.082 29.52 194.242 33.36 190.402 37.008C189.122 38.096 187.906 39.056 186.69 40.208L186.498 39.952C186.562 39.76 186.562 39.504 186.69 39.312C187.906 37.2 189.058 35.152 190.402 33.04C195.65 24.592 200.834 16.144 206.146 7.76L207.618 5.2C207.682 4.88 207.618 4.368 207.426 4.112C207.106 3.728 206.594 3.728 206.274 3.984C205.826 4.24 205.378 4.56 205.058 4.88C200.77 8.528 196.354 11.92 191.682 14.928C182.466 20.944 172.93 26.256 163.138 31.12C159.362 32.976 155.458 34.576 151.426 35.728C150.914 35.792 150.53 35.856 150.082 36.048C149.762 36.112 149.634 36.496 149.442 36.816C149.698 36.944 150.018 37.2 150.21 37.264C150.786 37.392 151.298 37.264 151.746 37.136C153.73 36.56 155.842 35.984 157.762 35.28C162.306 33.552 166.658 31.44 170.882 29.072C176.45 26 181.89 22.928 187.33 19.792C192.578 16.656 197.57 13.328 202.242 9.488C202.37 9.36 202.562 9.36 203.01 9.232C202.562 9.872 202.37 10.256 202.178 10.64C199.426 14.992 196.61 19.408 193.986 23.696C191.042 28.496 188.162 33.36 185.282 38.224C184.77 39.056 184.322 40.08 184.002 41.104C183.682 41.744 183.618 42.448 184.258 42.96C184.898 43.472 185.602 43.152 186.178 42.832C186.69 42.448 187.266 42.128 187.714 41.68C191.17 38.608 194.562 35.472 197.89 32.336C201.282 29.264 204.61 26.064 208.002 22.992C211.714 19.536 218.242 11.92 222.082 8.592C222.978 7.632 224.002 6.864 225.026 6.032C225.09 6.032 225.154 6.096 225.218 6.16C225.026 6.48 224.898 6.864 224.642 7.248C223.298 9.424 219.202 16.016 203.202 44.624C202.69 45.52 202.242 46.608 201.794 47.632C201.538 48.528 201.41 49.36 201.474 50.384C202.754 49.232 203.522 48.08 204.29 46.8ZM233.924 26.512C232.132 28.176 224.132 29.84 222.468 28.176C221.892 27.6 221.892 26.896 223.172 26.896C224.004 26.896 224.9 26.832 225.668 26.64C226.692 26.32 227.652 25.936 228.484 25.424C229.06 25.104 229.316 24.528 229.188 23.888C229.06 23.248 228.548 22.864 227.908 22.8C226.372 22.8 224.644 23.056 223.108 23.76C221.7 24.528 221.38 24.976 220.803 26.64C219.907 30.096 223.428 30.352 225.732 30.224C229.124 30.032 232.644 29.2 235.78 27.6C236.164 27.408 236.356 26.96 236.164 26.512C235.908 26.064 235.588 26 235.076 26.064C234.692 26.192 234.308 26.32 233.924 26.512ZM227.46 24.656C226.436 25.616 223.94 26.192 222.66 26.064C224.772 24.656 228.612 23.184 227.46 24.656ZM245.755 28.56C249.659 28.752 250.363 26.384 247.931 26.576C247.483 26.576 246.971 26.64 246.587 26.64C245.563 26.704 245.243 26.512 245.051 25.552C244.923 24.976 244.859 24.336 244.667 23.696C244.283 22.48 243.451 21.968 242.171 22.288C241.595 22.352 240.955 22.608 240.443 23.056C239.675 23.568 238.971 24.272 238.139 24.912C238.011 25.04 237.755 25.232 237.499 25.424C237.947 24.208 238.459 23.12 239.035 22.032C239.163 21.712 239.291 21.328 239.291 20.944C239.355 20.688 239.163 20.368 238.971 20.24C238.779 20.112 238.395 20.24 238.267 20.368C237.947 20.688 237.627 21.136 237.435 21.52C235.835 24.4 234.299 27.344 232.699 30.224C232.571 30.544 232.315 30.8 232.315 31.184C232.315 32.656 234.107 32.08 234.683 30.8C235.451 29.328 236.667 27.856 238.139 26.64C239.099 25.744 241.979 22.672 243.067 25.104C243.451 26.576 243.707 28.432 245.755 28.56ZM249.521 31.056C249.457 30.992 249.393 30.992 249.393 30.928C249.585 30.544 249.777 30.16 249.969 29.84C250.609 28.432 251.377 27.152 251.953 25.808C252.337 25.04 252.081 24.336 251.569 24.08C251.121 23.696 250.353 23.76 249.777 24.464C248.753 25.616 247.921 26.896 247.921 28.56C247.857 28.944 247.857 29.392 247.665 29.776C246.513 31.824 245.233 33.616 243.121 34.896C239.153 37.2 235.569 40.08 232.177 43.28C230.769 44.624 229.425 46.032 228.209 47.568C227.633 48.208 227.185 48.976 226.865 49.808C226.481 51.472 227.633 52.624 229.361 52.176C229.937 52.048 230.449 51.792 230.961 51.472C233.841 50 236.145 47.824 238.385 45.584C241.137 42.768 243.505 39.504 245.681 36.368C246.257 35.728 246.833 35.024 247.601 34.576C252.337 31.824 257.265 29.52 262.513 28.048C262.833 27.856 263.089 27.792 263.281 27.728C263.793 27.408 264.113 26.96 263.857 26.384C263.665 25.872 263.153 25.744 262.705 25.808C262.257 25.872 261.873 26 261.425 26.192C257.905 27.216 254.513 28.688 251.249 30.352C250.673 30.608 250.097 30.8 249.521 31.056ZM242.929 37.392C239.025 42.576 234.801 47.376 228.593 50.576C228.465 49.616 228.913 49.296 229.169 48.848C230.769 47.184 232.433 45.392 234.225 43.792C235.889 42.32 241.201 37.2 242.929 37.392ZM253.553 18.832C253.297 18.896 252.657 19.152 252.337 19.536C251.889 19.856 251.697 20.624 252.081 21.072C252.401 21.328 252.913 21.584 253.489 21.52C253.937 21.456 254.257 21.136 254.641 20.88C255.217 20.56 255.537 19.984 255.281 19.408C255.025 18.64 254.385 18.704 253.553 18.832ZM280.222 27.344C280.798 27.088 280.478 26.576 280.03 26.448C279.646 26.384 279.262 26.704 278.942 26.832C277.726 27.408 276.51 28.176 275.486 28.432C271.582 29.584 274.91 23.44 275.422 22.352C275.678 21.904 275.87 21.52 275.934 21.072C275.998 20.688 275.87 20.368 275.678 20.112C275.422 19.984 274.974 19.984 274.718 20.048C274.462 20.112 274.206 20.432 274.014 20.688C273.438 21.264 272.862 21.904 272.286 22.48C271.902 22.928 271.39 23.056 270.942 22.992C267.87 22.736 265.246 23.76 263.006 25.68C262.494 26.128 262.174 26.512 261.79 27.024C261.342 27.664 261.15 28.368 261.598 29.136C261.982 29.84 262.75 30.096 263.582 29.968C264.158 29.904 264.862 29.84 265.374 29.456C267.614 28.304 269.662 26.896 271.838 25.552C271.71 26.384 271.582 27.088 271.582 27.792C271.582 32.208 278.302 29.136 280.222 27.344ZM263.39 28.112C264.862 25.936 268.062 24.464 270.622 24.272C268.894 25.936 265.886 27.664 263.39 28.112Z" fill="black"/>
</svg>
